{"title":"Later, With Jools Holland.s36eo2.(23rd April 2010)[DTV-RIP-Divx]","uid":5512110,"size":626948185,"categoryP":"video","categoryS":"music_videos","magnet":"?xt=urn:btih:51fec87fd01bc69ce78443eece998cd2c676f76c&amp;dn=Later%2C+With+Jools+Holland.s36eo2.%2823rd+April+2010%29%5BDTV-RIP-Divx%5D&amp;tr=udp%3A%2F%2Ftracker.openbittorrent.com%3A80&amp;tr=udp%3A%2F%2Fopen.demonii.com%3A1337&amp;tr=udp%3A%2F%2Ftracker.coppersurfer.tk%3A6969&amp;tr=udp%3A%2F%2Fexodus.desync.com%3A6969","seeders":1,"leechers":1,"uploader":"seanprince","files":-1,"time":1272101205,"description":"Later, With Jools Holland.s36eo2.(23rd April 2010)[DTV-RIP-Divx]\n\nFirst Shown On BBC 2 On Friday 23rd April 2010\n\n\n\n\nDescription:\n\nEpisode 2 of Later Live featured Seattle-based rockers Band of Horses visit the studio to play tracks from their new album Infinite Arms, and indie pop star Kate Nash performs songs from My Best Friend Is You, the follow-up to her 2007 release Made of Bricks. Also appearing are ska revivalist Jerry Dammers and his Spatial AKA Orchestra, Pennsylvanian jazz singer Melody Gardot and former Cream star Jack Bruce. Plus, rapper Plan B makes his debut appearance on the show with numbers from his second album The Defamation of Strickland Banks. An extended edition can be seen on Friday at 11.50pm\n\nDescription:\n\n\nBand Of Horses\n\nThe group leave their South Carolina base to play in the Later studio. They're appearing at Reading &amp; Leeds this summer and release their third album, Infinite Arms, in May.\n\nKate Nash\n\nAfter a break from the limelight Kate Nash returns with the follow up to her debut number 1 album. Her new album, My Best Friend Is You, is produced by Bernard Butler.\n\nJerry Dammer's Spatial AKA Orchestra\n\nThe orchestra reinterprets the work of Sun Ra, complete with massive spaceship and 21 musicians including Rico Rodriguez and Zoe Rahman.\n\nPlan B\n\nWith his new album 'The Defamation of Strickland Banks' Plan B joins us for the second time in the studio, with a new character and a sharp suit to match.\n\nMelody Gardot\n\nThe 25 year old singer songwriter Melody Gardot has gained acclaim over the past year topping jazz charts and being compared to the likes of Norah Jones and Diana Krall.\n\nJack Bruce\n\nThe Cream vocalist and bassist has recently released a biography, Jack Bruce Composing Himself, and joins Jools for a chat in the studio.\n\n\nGeneral\nComplete name : Later.s36e02Later.s36e02.divx\nFormat : AVI\nFormat/Info : Audio Video Interleave\nFile size : 598 MiB\nDuration : 1h 4mn\nOverall bit rate : 1 302 Kbps\n\nVideo\nID : 0\nFormat : MPEG-4 Visual\nFormat settings, BVOP : Yes\nFormat settings, QPel : No\nFormat settings, GMC : No warppoints\nFormat settings, Matrix : Default (H.263)\nMuxing mode : Packed bitstream\nCodec ID : DX50\nCodec ID/Hint : DivX 5\nDuration : 1h 4mn\nBit rate : 1 100 Kbps\nWidth : 688 pixels\nHeight : 384 pixels\nDisplay aspect ratio : 16:9\nFrame rate : 25.000 fps\nResolution : 8 bits\nColorimetry : 4:2:0\nScan type : Progressive\nBits/(Pixel*Frame) : 0.167\nStream size : 505 MiB (85%)\nTitle : Video\nWriting library : DivX 6.8.2 (UTC 2008-05-17)\n\nAudio\nID : 1\nFormat : AC-3\nFormat/Info : Audio Coding 3\nCodec ID : 2000\nDuration : 1h 4mn\nBit rate mode : Constant\nBit rate : 192 Kbps\nChannel(s) : 2 channels\nChannel positions : Front: L R\nSampling rate : 48.0 KHz\nStream size : 88.1 MiB (15%)\nAlignment : Split accross interleaves\nInterleave, duration : 40 ms (1.00 video frame)\nInterleave, preload duration : 500 ms","torrent":{"xt":"urn:btih:51fec87fd01bc69ce78443eece998cd2c676f76c","amp;dn":"Later%2C+With+Jools+Holland.s36eo2.%2823rd+April+2010%29%5BDTV-RIP-Divx%5D","amp;tr":["udp%3A%2F%2Ftracker.openbittorrent.com%3A80","udp%3A%2F%2Fopen.demonii.com%3A1337","udp%3A%2F%2Ftracker.coppersurfer.tk%3A6969","udp%3A%2F%2Fexodus.desync.com%3A6969"],"infoHash":"51fec87fd01bc69ce78443eece998cd2c676f76c","infoHashBuffer":{"type":"Buffer","data":[81,254,200,127,208,27,198,156,231,132,67,238,206,153,140,210,198,118,247,108]},"announce":[],"urlList":[]}}